<svg width="1200" height="400" viewBox="0 0 1200 400" fill="none" xmlns="http://www.w3.org/2000/svg">
<path d="M178.067 169.706C182.966 135.377 197.113 103.339 219.365 76.3422C238.411 53.2877 262.174 35.2749 289.095 23.4038L296.558 20.9746L289.095 208.482C289.095 208.482 290.194 222.232 284.7 226.357C281.678 228.832 270.278 222.966 270.278 222.966L177.518 181.44L178.067 169.706Z" fill="#00A3E0"/>
<path d="M330.022 11.1724C343.045 8.42138 356.344 7 369.78 7C408.528 7 445.81 18.6003 477.542 40.6087C504.231 59.0865 525.508 83.7084 539.724 112.503L543.438 121.49L372.623 208.973C372.623 208.973 350.153 224.012 338.46 218.51C329.701 215.942 330.022 182.746 330.022 182.746L317.778 15.1156L330.022 11.1724Z" fill="#20603D"/>
<path d="M368.601 391.553C355.16 391.553 341.856 390.128 328.827 387.371L319.331 383.741L328.827 318.488C328.827 318.488 328.506 309.068 331.029 306.77C333.552 304.473 340.847 309.344 340.847 309.344L460.627 367.198L450.718 372.85C425.257 385.12 397.319 391.553 368.601 391.553Z" fill="#FAD201"/>
<path d="M368.515 268.987C367.828 260.481 390.229 249.002 390.229 249.002L549.968 146.744L553.77 156.028C557.939 171.211 560 186.943 560 202.95C560 232.584 552.579 261.945 538.515 287.875C526.605 309.781 510.067 329.263 490.232 344.675L480.841 350.666L388.168 286.64C388.168 286.64 369.203 277.585 368.561 269.079L368.515 268.987Z" fill="#00A3E0"/>
<path d="M292.26 375.233C282.005 370.709 272.115 365.271 262.775 358.964C252.656 352.155 243.225 344.386 234.617 335.749L228.757 328.619L283.47 307.598C283.47 307.598 288.048 304.627 290.337 305.998C292.627 307.369 292.26 314.224 292.26 314.224L300.181 377.061L292.26 375.233Z" fill="#20603D"/>
<path d="M208.388 307.004C199.69 294.047 192.648 280.129 187.401 265.432C181.74 249.636 178.289 233.153 177 216.396L177.368 206.781L258.462 263.188C258.462 263.188 265.504 266.988 265.504 270.193C265.504 273.398 259.935 277.381 259.935 277.381L213.267 313.918L208.388 307.004Z" fill="#FAD201"/>
<path d="M627.856 108.868C619.672 108.868 612.149 106.967 605.288 103.164C598.509 99.3613 593.095 94.0707 589.044 87.292C585.076 80.4307 583.092 72.7427 583.092 64.228C583.092 55.7133 585.076 48.0667 589.044 41.288C593.095 34.5093 598.509 29.2187 605.288 25.416C612.149 21.6133 619.672 19.712 627.856 19.712C636.04 19.712 643.521 21.6133 650.3 25.416C657.161 29.2187 662.535 34.5093 666.42 41.288C670.388 48.0667 672.372 55.7133 672.372 64.228C672.372 72.7427 670.388 80.4307 666.42 87.292C662.452 94.0707 657.079 99.3613 650.3 103.164C643.521 106.967 636.04 108.868 627.856 108.868ZM627.856 89.524C634.8 89.524 640.339 87.2093 644.472 82.58C648.688 77.9507 650.796 71.8333 650.796 64.228C650.796 56.54 648.688 50.4227 644.472 45.876C640.339 41.2467 634.8 38.932 627.856 38.932C620.829 38.932 615.208 41.2053 610.992 45.752C606.859 50.2987 604.792 56.4573 604.792 64.228C604.792 71.916 606.859 78.0747 610.992 82.704C615.208 87.2507 620.829 89.524 627.856 89.524ZM705.372 48.604C707.439 45.38 710.291 42.776 713.928 40.792C717.566 38.808 721.823 37.816 726.7 37.816C732.404 37.816 737.571 39.2627 742.2 42.156C746.83 45.0493 750.467 49.1827 753.112 54.556C755.84 59.9293 757.204 66.1707 757.204 73.28C757.204 80.3893 755.84 86.672 753.112 92.128C750.467 97.5013 746.83 101.676 742.2 104.652C737.571 107.545 732.404 108.992 726.7 108.992C721.906 108.992 717.648 108 713.928 106.016C710.291 104.032 707.439 101.469 705.372 98.328V140.984H684.168V38.808H705.372V48.604ZM735.628 73.28C735.628 67.9893 734.14 63.856 731.164 60.88C728.271 57.8213 724.675 56.292 720.376 56.292C716.16 56.292 712.564 57.8213 709.588 60.88C706.695 63.9387 705.248 68.1133 705.248 73.404C705.248 78.6947 706.695 82.8693 709.588 85.928C712.564 88.9867 716.16 90.516 720.376 90.516C724.592 90.516 728.188 88.9867 731.164 85.928C734.14 82.7867 735.628 78.5707 735.628 73.28ZM833.553 72.288C833.553 74.272 833.429 76.3387 833.181 78.488H785.193C785.523 82.7867 786.887 86.0933 789.285 88.408C791.765 90.64 794.782 91.756 798.337 91.756C803.627 91.756 807.306 89.524 809.373 85.06H831.941C830.783 89.6067 828.675 93.6987 825.617 97.336C822.641 100.973 818.879 103.825 814.333 105.892C809.786 107.959 804.702 108.992 799.081 108.992C792.302 108.992 786.267 107.545 780.977 104.652C775.686 101.759 771.553 97.6253 768.577 92.252C765.601 86.8787 764.113 80.596 764.113 73.404C764.113 66.212 765.559 59.9293 768.453 54.556C771.429 49.1827 775.562 45.0493 780.853 42.156C786.143 39.2627 792.219 37.816 799.081 37.816C805.777 37.816 811.729 39.2213 816.937 42.032C822.145 44.8427 826.195 48.852 829.089 54.06C832.065 59.268 833.553 65.344 833.553 72.288ZM811.853 66.708C811.853 63.0707 810.613 60.1773 808.133 58.028C805.653 55.8787 802.553 54.804 798.833 54.804C795.278 54.804 792.261 55.8373 789.781 57.904C787.383 59.9707 785.895 62.9053 785.317 66.708H811.853ZM886.899 38.064C895 38.064 901.448 40.7093 906.243 46C911.12 51.208 913.559 58.4 913.559 67.576V108H892.479V70.428C892.479 65.7987 891.28 62.2027 888.883 59.64C886.485 57.0773 883.261 55.796 879.211 55.796C875.16 55.796 871.936 57.0773 869.539 59.64C867.141 62.2027 865.943 65.7987 865.943 70.428V108H844.739V38.808H865.943V47.984C868.092 44.9253 870.985 42.528 874.623 40.792C878.26 38.9733 882.352 38.064 886.899 38.064ZM618.184 228.868C611.819 228.868 606.115 227.835 601.072 225.768C596.029 223.701 591.979 220.643 588.92 216.592C585.944 212.541 584.373 207.664 584.208 201.96H606.776C607.107 205.184 608.223 207.664 610.124 209.4C612.025 211.053 614.505 211.88 617.564 211.88C620.705 211.88 623.185 211.177 625.004 209.772C626.823 208.284 627.732 206.259 627.732 203.696C627.732 201.547 626.988 199.769 625.5 198.364C624.095 196.959 622.317 195.801 620.168 194.892C618.101 193.983 615.125 192.949 611.24 191.792C605.619 190.056 601.031 188.32 597.476 186.584C593.921 184.848 590.863 182.285 588.3 178.896C585.737 175.507 584.456 171.084 584.456 165.628C584.456 157.527 587.391 151.203 593.26 146.656C599.129 142.027 606.776 139.712 616.2 139.712C625.789 139.712 633.519 142.027 639.388 146.656C645.257 151.203 648.399 157.568 648.812 165.752H625.872C625.707 162.941 624.673 160.751 622.772 159.18C620.871 157.527 618.432 156.7 615.456 156.7C612.893 156.7 610.827 157.403 609.256 158.808C607.685 160.131 606.9 162.073 606.9 164.636C606.9 167.447 608.223 169.637 610.868 171.208C613.513 172.779 617.647 174.473 623.268 176.292C628.889 178.193 633.436 180.012 636.908 181.748C640.463 183.484 643.521 186.005 646.084 189.312C648.647 192.619 649.928 196.876 649.928 202.084C649.928 207.044 648.647 211.549 646.084 215.6C643.604 219.651 639.967 222.875 635.172 225.272C630.377 227.669 624.715 228.868 618.184 228.868ZM694.473 228.992C687.694 228.992 681.577 227.545 676.121 224.652C670.748 221.759 666.49 217.625 663.349 212.252C660.29 206.879 658.761 200.596 658.761 193.404C658.761 186.295 660.332 180.053 663.473 174.68C666.614 169.224 670.913 165.049 676.369 162.156C681.825 159.263 687.942 157.816 694.721 157.816C701.5 157.816 707.617 159.263 713.073 162.156C718.529 165.049 722.828 169.224 725.969 174.68C729.11 180.053 730.681 186.295 730.681 193.404C730.681 200.513 729.069 206.796 725.845 212.252C722.704 217.625 718.364 221.759 712.825 224.652C707.369 227.545 701.252 228.992 694.473 228.992ZM694.473 210.64C698.524 210.64 701.954 209.152 704.765 206.176C707.658 203.2 709.105 198.943 709.105 193.404C709.105 187.865 707.7 183.608 704.889 180.632C702.161 177.656 698.772 176.168 694.721 176.168C690.588 176.168 687.157 177.656 684.429 180.632C681.701 183.525 680.337 187.783 680.337 193.404C680.337 198.943 681.66 203.2 684.305 206.176C687.033 209.152 690.422 210.64 694.473 210.64ZM810.254 158.808V228H789.05V218.576C786.901 221.635 783.966 224.115 780.246 226.016C776.609 227.835 772.558 228.744 768.094 228.744C762.804 228.744 758.133 227.587 754.082 225.272C750.032 222.875 746.89 219.444 744.658 214.98C742.426 210.516 741.31 205.267 741.31 199.232V158.808H762.39V196.38C762.39 201.009 763.589 204.605 765.986 207.168C768.384 209.731 771.608 211.012 775.658 211.012C779.792 211.012 783.057 209.731 785.454 207.168C787.852 204.605 789.05 201.009 789.05 196.38V158.808H810.254ZM846.689 170.34C849.169 166.537 852.269 163.561 855.989 161.412C859.709 159.18 863.842 158.064 868.389 158.064V180.508H862.561C857.27 180.508 853.302 181.665 850.657 183.98C848.012 186.212 846.689 190.18 846.689 195.884V228H825.485V158.808H846.689V170.34ZM874.308 193.404C874.308 186.212 875.755 179.929 878.648 174.556C881.624 169.183 885.716 165.049 890.924 162.156C896.215 159.263 902.249 157.816 909.028 157.816C917.708 157.816 924.941 160.089 930.728 164.636C936.597 169.183 940.441 175.589 942.26 183.856H919.692C917.791 178.565 914.112 175.92 908.656 175.92C904.771 175.92 901.671 177.449 899.356 180.508C897.041 183.484 895.884 187.783 895.884 193.404C895.884 199.025 897.041 203.365 899.356 206.424C901.671 209.4 904.771 210.888 908.656 210.888C914.112 210.888 917.791 208.243 919.692 202.952H942.26C940.441 211.053 936.597 217.419 930.728 222.048C924.859 226.677 917.625 228.992 909.028 228.992C902.249 228.992 896.215 227.545 890.924 224.652C885.716 221.759 881.624 217.625 878.648 212.252C875.755 206.879 874.308 200.596 874.308 193.404ZM1018.83 192.288C1018.83 194.272 1018.7 196.339 1018.45 198.488H970.466C970.797 202.787 972.161 206.093 974.558 208.408C977.038 210.64 980.055 211.756 983.61 211.756C988.901 211.756 992.579 209.524 994.646 205.06H1017.21C1016.06 209.607 1013.95 213.699 1010.89 217.336C1007.91 220.973 1004.15 223.825 999.606 225.892C995.059 227.959 989.975 228.992 984.354 228.992C977.575 228.992 971.541 227.545 966.25 224.652C960.959 221.759 956.826 217.625 953.85 212.252C950.874 206.879 949.386 200.596 949.386 193.404C949.386 186.212 950.833 179.929 953.726 174.556C956.702 169.183 960.835 165.049 966.126 162.156C971.417 159.263 977.493 157.816 984.354 157.816C991.05 157.816 997.002 159.221 1002.21 162.032C1007.42 164.843 1011.47 168.852 1014.36 174.06C1017.34 179.268 1018.83 185.344 1018.83 192.288ZM997.126 186.708C997.126 183.071 995.886 180.177 993.406 178.028C990.926 175.879 987.826 174.804 984.106 174.804C980.551 174.804 977.534 175.837 975.054 177.904C972.657 179.971 971.169 182.905 970.59 186.708H997.126ZM637.156 348L607.892 309.56V348H586.688V260.952H607.892V299.144L636.908 260.952H661.832L628.104 303.608L663.072 348H637.156ZM683.813 271.616C680.093 271.616 677.034 270.541 674.637 268.392C672.322 266.16 671.165 263.432 671.165 260.208C671.165 256.901 672.322 254.173 674.637 252.024C677.034 249.792 680.093 248.676 683.813 248.676C687.45 248.676 690.426 249.792 692.741 252.024C695.138 254.173 696.337 256.901 696.337 260.208C696.337 263.432 695.138 266.16 692.741 268.392C690.426 270.541 687.45 271.616 683.813 271.616ZM694.353 278.808V348H673.149V278.808H694.353ZM736.007 277.816C740.885 277.816 745.142 278.808 748.779 280.792C752.499 282.776 755.351 285.38 757.335 288.604V278.808H778.539V347.876C778.539 354.241 777.258 359.987 774.695 365.112C772.215 370.32 768.371 374.453 763.163 377.512C758.038 380.571 751.631 382.1 743.943 382.1C733.693 382.1 725.385 379.661 719.019 374.784C712.654 369.989 709.017 363.459 708.107 355.192H729.063C729.725 357.837 731.295 359.904 733.775 361.392C736.255 362.963 739.314 363.748 742.951 363.748C747.333 363.748 750.805 362.467 753.367 359.904C756.013 357.424 757.335 353.415 757.335 347.876V338.08C755.269 341.304 752.417 343.949 748.779 346.016C745.142 348 740.885 348.992 736.007 348.992C730.303 348.992 725.137 347.545 720.507 344.652C715.878 341.676 712.199 337.501 709.471 332.128C706.826 326.672 705.503 320.389 705.503 313.28C705.503 306.171 706.826 299.929 709.471 294.556C712.199 289.183 715.878 285.049 720.507 282.156C725.137 279.263 730.303 277.816 736.007 277.816ZM757.335 313.404C757.335 308.113 755.847 303.939 752.871 300.88C749.978 297.821 746.423 296.292 742.207 296.292C737.991 296.292 734.395 297.821 731.419 300.88C728.526 303.856 727.079 307.989 727.079 313.28C727.079 318.571 728.526 322.787 731.419 325.928C734.395 328.987 737.991 330.516 742.207 330.516C746.423 330.516 749.978 328.987 752.871 325.928C755.847 322.869 757.335 318.695 757.335 313.404ZM789.663 313.28C789.663 306.171 790.986 299.929 793.631 294.556C796.359 289.183 800.038 285.049 804.667 282.156C809.297 279.263 814.463 277.816 820.167 277.816C825.045 277.816 829.302 278.808 832.939 280.792C836.659 282.776 839.511 285.38 841.495 288.604V278.808H862.699V348H841.495V338.204C839.429 341.428 836.535 344.032 832.815 346.016C829.178 348 824.921 348.992 820.043 348.992C814.422 348.992 809.297 347.545 804.667 344.652C800.038 341.676 796.359 337.501 793.631 332.128C790.986 326.672 789.663 320.389 789.663 313.28ZM841.495 313.404C841.495 308.113 840.007 303.939 837.031 300.88C834.138 297.821 830.583 296.292 826.367 296.292C822.151 296.292 818.555 297.821 815.579 300.88C812.686 303.856 811.239 307.989 811.239 313.28C811.239 318.571 812.686 322.787 815.579 325.928C818.555 328.987 822.151 330.516 826.367 330.516C830.583 330.516 834.138 328.987 837.031 325.928C840.007 322.869 841.495 318.695 841.495 313.404ZM899.244 256.24V348H878.04V256.24H899.244ZM925.274 271.616C921.554 271.616 918.495 270.541 916.098 268.392C913.783 266.16 912.626 263.432 912.626 260.208C912.626 256.901 913.783 254.173 916.098 252.024C918.495 249.792 921.554 248.676 925.274 248.676C928.911 248.676 931.887 249.792 934.202 252.024C936.599 254.173 937.798 256.901 937.798 260.208C937.798 263.432 936.599 266.16 934.202 268.392C931.887 270.541 928.911 271.616 925.274 271.616ZM935.814 278.808V348H914.61V278.808H935.814Z" fill="white"/>
</svg>
