<?xml version="1.0" encoding="UTF-8"?>
<svg id="Layer_1" data-name="Layer 1" xmlns="http://www.w3.org/2000/svg" version="1.1" viewBox="0 0 16 16">
  <defs>
    <style>
      .cls-1 {
        fill: #fad201;
      }

      .cls-1, .cls-2, .cls-3 {
        stroke-width: 0px;
      }

      .cls-2 {
        fill: #20603d;
      }

      .cls-3 {
        fill: #00a3e0;
      }
    </style>
  </defs>
  <path class="cls-3" d="M1,6.9c.2-1.3.7-2.4,1.5-3.4.7-.8,1.6-1.5,2.5-1.9h.3c0,0-.3,6.8-.3,6.8,0,0,0,.5-.2.7-.1,0-.5-.1-.5-.1l-3.4-1.5v-.4Z"/>
  <path class="cls-2" d="M6.6,1.2c.5-.1,1-.2,1.5-.2,1.4,0,2.8.4,3.9,1.2,1,.7,1.8,1.6,2.3,2.6v.3c.1,0-6.1,3.2-6.1,3.2,0,0-.8.5-1.2.3-.3,0-.3-1.3-.3-1.3l-.4-6.1h.4Z"/>
  <path class="cls-1" d="M8,15.1c-.5,0-1,0-1.5-.2h-.3c0-.1.3-2.5.3-2.5,0,0,0-.3,0-.4s.4,0,.4,0l4.4,2.1-.4.2c-.9.4-2,.7-3,.7Z"/>
  <path class="cls-3" d="M8,10.6c0-.3.8-.7.8-.7l5.8-3.7v.3c.3.6.4,1.1.4,1.7,0,1.1-.3,2.2-.8,3.1-.4.8-1,1.5-1.8,2.1l-.3.2-3.4-2.3s-.7-.3-.7-.6h0Z"/>
  <path class="cls-2" d="M5.2,14.5c-.4-.2-.7-.4-1.1-.6-.4-.2-.7-.5-1-.8l-.2-.3,2-.8s.2-.1.3,0c0,0,0,.3,0,.3l.3,2.3h-.3Z"/>
  <path class="cls-1" d="M2.1,12c-.3-.5-.6-1-.8-1.5-.2-.6-.3-1.2-.4-1.8v-.4s3,2.1,3,2.1c0,0,.3.1.3.3s-.2.3-.2.3l-1.7,1.3-.2-.3Z"/>
</svg>